<svg xmlns:dc="http://purl.org/dc/elements/1.1/" xmlns:cc="http://creativecommons.org/ns#" xmlns:rdf="http://www.w3.org/1999/02/22-rdf-syntax-ns#" xmlns:svg="http://www.w3.org/2000/svg" xmlns="http://www.w3.org/2000/svg" xmlns:xlink="http://www.w3.org/1999/xlink" id="svg83867" viewBox="0 0 1024 768" height="768" width="1024" version="1.1">
  <metadata id="metadata83873" fill="#FFFFFF">
    <rdf:rdf fill="#FFFFFF">
      <cc:work rdf:about="" fill="#FFFFFF">
        <dc:format fill="#FFFFFF">image/svg+xml</dc:format>
        <dc:type rdf:resource="http://purl.org/dc/dcmitype/StillImage" fill="#FFFFFF"></dc:type>
      </cc:work>
    </rdf:rdf>
  </metadata>
  <defs id="defs83871"><linearGradient id="96dbe5d8-5330-44ff-892d-344af630d62c" gradientUnits="userSpaceOnUse" x1="107.84621" y1="107.31201" x2="108.1469" y2="98.66724" fill="#FFFFFF"> <stop offset="0.13096" style="stop-color:#000000" fill="#FFFFFF"></stop> <stop offset="1" style="stop-color:#000000;stop-opacity:0" fill="#FFFFFF"></stop> </linearGradient><linearGradient id="13ce46c2-05fe-4d9a-9667-5ff9b06f9530" gradientUnits="userSpaceOnUse" x1="96.26823" y1="122.69496" x2="88.96255" y2="118.17534" fill="#FFFFFF"> <stop offset="0" style="stop-color:#000000" fill="#FFFFFF"></stop> <stop offset="0.90401" style="stop-color:#000000;stop-opacity:0" fill="#FFFFFF"></stop> </linearGradient><linearGradient id="e58171b7-7074-4780-ab5a-fba4b82614dc" gradientUnits="userSpaceOnUse" x1="96.44187" y1="117.47855" x2="105.51484" y2="121.49657" fill="#FFFFFF"> <stop offset="0.00751" style="stop-color:#000000" fill="#FFFFFF"></stop> <stop offset="0.72837" style="stop-color:#000000;stop-opacity:0" fill="#FFFFFF"></stop> </linearGradient><linearGradient id="bbd082d7-de08-43af-b02b-f1a8de3d1ae3" gradientUnits="userSpaceOnUse" x1="103.25671" y1="109.15665" x2="97.80662" y2="107.17479" fill="#FFFFFF"> <stop offset="0" style="stop-color:#000000" fill="#FFFFFF"></stop> <stop offset="1" style="stop-color:#000000;stop-opacity:0" fill="#FFFFFF"></stop> </linearGradient><linearGradient id="40cad867-648a-4a78-a952-b9f93ff6eb80" gradientUnits="userSpaceOnUse" x1="102.1292" y1="118.57168" x2="93.86115" y2="119.8413" fill="#FFFFFF"> <stop offset="0" style="stop-color:#000000" fill="#FFFFFF"></stop> <stop offset="1" style="stop-color:#000000;stop-opacity:0" fill="#FFFFFF"></stop> </linearGradient><linearGradient id="e9293e92-81e5-4a04-81a2-99e1e6f68744" gradientUnits="userSpaceOnUse" x1="103.25671" y1="109.15665" x2="97.80662" y2="107.17479" fill="#FFFFFF"> <stop offset="0" style="stop-color:#000000" fill="#FFFFFF"></stop> <stop offset="1" style="stop-color:#000000;stop-opacity:0" fill="#FFFFFF"></stop> </linearGradient><linearGradient id="fe2606e8-57d7-4e49-8fc3-0d434ae442c9" gradientUnits="userSpaceOnUse" x1="102.1292" y1="118.57168" x2="93.86115" y2="119.8413" fill="#FFFFFF"> <stop offset="0" style="stop-color:#000000" fill="#FFFFFF"></stop> <stop offset="1" style="stop-color:#000000;stop-opacity:0" fill="#FFFFFF"></stop> </linearGradient><linearGradient id="b44edf1d-3015-4bc2-bccb-bae0d53b4622" gradientUnits="userSpaceOnUse" x1="106.06267" y1="109.16569" x2="100.64492" y2="107.19559" fill="#FFFFFF"> <stop offset="0" style="stop-color:#000000" fill="#FFFFFF"></stop> <stop offset="1" style="stop-color:#000000;stop-opacity:0" fill="#FFFFFF"></stop> </linearGradient><linearGradient id="f39649ea-46d4-473d-8b80-dd23db708690" gradientUnits="userSpaceOnUse" x1="104.58519" y1="118.53489" x2="96.54133" y2="119.77009" fill="#FFFFFF"> <stop offset="0" style="stop-color:#000000" fill="#FFFFFF"></stop> <stop offset="1" style="stop-color:#000000;stop-opacity:0" fill="#FFFFFF"></stop> </linearGradient><linearGradient id="83b28b18-452f-4206-a07c-82e872ff58c9" gradientUnits="userSpaceOnUse" x1="106.74685" y1="127.69627" x2="103.32802" y2="118.905" fill="#FFFFFF"> <stop offset="0.05566" style="stop-color:#000000" fill="#FFFFFF"></stop> <stop offset="1" style="stop-color:#000000;stop-opacity:0" fill="#FFFFFF"></stop> </linearGradient><linearGradient id="5c265dcb-5191-4d46-b1c8-2fa32c35e1e8" gradientUnits="userSpaceOnUse" x1="94.21132" y1="125.53598" x2="95.951" y2="135.75664" fill="#FFFFFF"> <stop offset="0.05566" style="stop-color:#000000" fill="#FFFFFF"></stop> <stop offset="1" style="stop-color:#000000;stop-opacity:0" fill="#FFFFFF"></stop> </linearGradient><linearGradient id="3631359f-c104-41a7-8e6e-63f13aeece37" gradientUnits="userSpaceOnUse" x1="105.63009" y1="116.659" x2="96.27245" y2="115.89822" fill="#FFFFFF"> <stop offset="0.05566" style="stop-color:#000000" fill="#FFFFFF"></stop> <stop offset="1" style="stop-color:#000000;stop-opacity:0" fill="#FFFFFF"></stop> </linearGradient><linearGradient id="c4b31797-8c3b-457c-b7b7-ae7a309646a0" gradientUnits="userSpaceOnUse" x1="107.0996" y1="127.38519" x2="104.30972" y2="120.54548" fill="#FFFFFF"> <stop offset="0.05566" style="stop-color:#000000" fill="#FFFFFF"></stop> <stop offset="1" style="stop-color:#000000;stop-opacity:0" fill="#FFFFFF"></stop> </linearGradient><linearGradient id="fd0bd509-b9fb-46f9-b75f-6b2fef477d8d" gradientUnits="userSpaceOnUse" x1="94.21127" y1="125.53584" x2="95.95098" y2="135.75664" fill="#FFFFFF"> <stop offset="0.05566" style="stop-color:#000000" fill="#FFFFFF"></stop> <stop offset="1" style="stop-color:#000000;stop-opacity:0" fill="#FFFFFF"></stop> </linearGradient></defs>
  <linearGradient spreadMethod="pad" y2="30%" x2="-10%" y1="120%" x1="30%" id="3d_gradient2-logo-44565d35-fef6-47ec-9cf4-417849ce1d33" fill="#FFFFFF">
    <stop id="stop83848" stop-opacity="1" stop-color="#ffffff" offset="0%" fill="#FFFFFF"></stop>
    <stop id="stop83850" stop-opacity="1" stop-color="#000000" offset="100%" fill="#FFFFFF"></stop>
  </linearGradient>
  <linearGradient gradientTransform="rotate(-30)" spreadMethod="pad" y2="30%" x2="-10%" y1="120%" x1="30%" id="3d_gradient3-logo-44565d35-fef6-47ec-9cf4-417849ce1d33" fill="#FFFFFF">
    <stop id="stop83853" stop-opacity="1" stop-color="#ffffff" offset="0%" fill="#FFFFFF"></stop>
    <stop id="stop83855" stop-opacity="1" stop-color="#cccccc" offset="50%" fill="#FFFFFF"></stop>
    <stop id="stop83857" stop-opacity="1" stop-color="#000000" offset="100%" fill="#FFFFFF"></stop>
  </linearGradient>
  <g id="logo-group" fill="#FFFFFF">
    <image xlink:href="" id="container" x="272" y="144" width="480" height="480" transform="translate(0 0)" style="display: none;" fill="#FFFFFF"></image>
    <g id="logo-center" transform="translate(0 0)" fill="#FFFFFF">
      <image xlink:href="" id="icon_container" x="0" y="0" style="display: none;" fill="#FFFFFF"></image>
      <g id="slogan" style="font-style:normal;font-weight:400;font-size:32px;line-height:1;font-family:'Shadows Into Light';font-variant-ligatures:none;text-align:center;text-anchor:middle" transform="translate(0 0)" fill="#FFFFFF"></g>
      <g id="title" style="font-style:normal;font-weight:normal;font-size:72px;line-height:1;font-family:'Brandmark Script 8 Shadow';font-variant-ligatures:normal;text-align:center;text-anchor:middle" transform="translate(0 0)" fill="#FFFFFF">
        <g id="path83876" aria-label="~B" transform="translate(0 332.84799999999996) translate(267.28795800000023 -46.767999999999994) scale(3.4) translate(-447.45987 40.32)" fill="#FFFFFF"> <path class="c1" d="M114.1976,103.38379c2.23193-2.23145,3.31201-5.83203,2.66406-8.56836 c-1.22412-5.47266-7.20068-9.93652-17.06543-9.93652c-11.23291,0-22.32227,7.05664-22.32227,16.70508 c0,5.32813,4.03271,9.36133,8.78516,9.36133s8.4248-3.45703,8.4248-8.28125c0-1.94434-1.22412-3.88867-2.66455-4.75195 l-3.02441,3.24023c0.43213,0.43164,0.64844,1.22363,0.64844,1.72754c0,1.72852-1.51221,3.02441-3.45654,3.02441 c-2.08789,0-3.67236-1.7998-3.67236-4.32031c0-6.48047,8.20898-11.66504,17.78564-11.66504 c5.6167,0,11.01709,1.72852,11.73682,6.33691c0.43213,2.66406-1.72803,6.19238-6.26416,7.34473l1.00781,3.8877 c7.05664-1.87207,11.521,1.29688,10.44092,6.98535c-0.71973,3.74414-4.17627,6.62402-8.7124,6.62402 c-2.73633,0-5.32861-0.79199-8.56885-2.37598c1.15186-2.37598,2.23193-5.47266,3.31201-9.50488l3.81641-14.40137h-5.18457 l-4.6084,17.49805c-0.43164,1.72754-0.93604,3.16797-1.43994,4.3916c-2.44824-1.00781-4.32031-1.43945-5.76025-1.43945 c-4.10449,0-6.26465,2.51953-6.33691,5.40039c-0.07178,2.16016,2.01611,5.1123,6.55273,5.1123 c2.80811,0,5.1123-0.79199,7.12842-3.09668c2.95264,1.5127,6.98486,3.09668,10.729,3.09668 c7.48877,0,12.67334-3.88867,14.11328-10.36914C123.55795,109.50488,119.95786,104.24805,114.1976,103.38379z M90.07553,121.38574 c-1.22412,0-1.94434-0.50391-1.94434-1.00781c0-0.43262,0.64795-0.79199,1.65625-0.79199 c1.08008,0,2.01611,0.14355,3.45605,0.86426C92.37924,121.09766,91.29916,121.38574,90.07553,121.38574z" transform="translate(369.98591 -125.19889)" stroke-width="0px" stroke-linejoin="miter" stroke-miterlimit="2" fill="#594737" stroke="#594737"></path> <linearGradient id="96dbe5d8-5330-44ff-892d-344af630d62c" gradientUnits="userSpaceOnUse" x1="107.84621" y1="107.31201" x2="108.1469" y2="98.66724" fill="#FFFFFF"> <stop offset="0.13096" style="stop-color:#000000" fill="#FFFFFF"></stop> <stop offset="1" style="stop-color:#000000;stop-opacity:0" fill="#FFFFFF"></stop> </linearGradient> <path class="highlight" fill="url(&quot;#96dbe5d8-5330-44ff-892d-344af630d62c&quot;)" d="M114.19763,103.38377c2.23193-2.23145,3.31201-5.83203,2.66406-8.56836 c-1.22412-5.47266-7.20068-9.93652-17.06543-9.93652l0.50391,5.04004c5.6167,0,11.01709,1.72852,11.73682,6.33691 c0.43213,2.66406-1.72803,6.19238-6.26416,7.34473C108.35789,103.0125,111.76574,102.98778,114.19763,103.38377z" transform="translate(369.98591 -125.19889)" stroke-width="0px" stroke-linejoin="miter" stroke-miterlimit="2" opacity="0.4"></path> <linearGradient id="13ce46c2-05fe-4d9a-9667-5ff9b06f9530" gradientUnits="userSpaceOnUse" x1="96.26823" y1="122.69496" x2="88.96255" y2="118.17534" fill="#FFFFFF"> <stop offset="0" style="stop-color:#000000" fill="#FFFFFF"></stop> <stop offset="0.90401" style="stop-color:#000000;stop-opacity:0" fill="#FFFFFF"></stop> </linearGradient> <path class="highlight" fill="url(&quot;#13ce46c2-05fe-4d9a-9667-5ff9b06f9530&quot;)" d="M95.83582,116.70506c-2.44824-1.00781-4.32031-1.43945-5.76025-1.43945 c-4.10449,0-6.26465,2.51953-6.33691,5.40039l4.39258-0.28809c0-0.43262,0.64795-0.79199,1.65625-0.79199 c1.08008,0,2.01611,0.14355,3.45605,0.86426C94.08189,119.80656,95.26446,118.15274,95.83582,116.70506z" transform="translate(369.98591 -125.19889)" stroke-width="0px" stroke-linejoin="miter" stroke-miterlimit="2" opacity="0.4"></path> <linearGradient id="e58171b7-7074-4780-ab5a-fba4b82614dc" gradientUnits="userSpaceOnUse" x1="96.44187" y1="117.47855" x2="105.51484" y2="121.49657" fill="#FFFFFF"> <stop offset="0.00751" style="stop-color:#000000" fill="#FFFFFF"></stop> <stop offset="0.72837" style="stop-color:#000000;stop-opacity:0" fill="#FFFFFF"></stop> </linearGradient> <path class="highlight" fill="url(&quot;#e58171b7-7074-4780-ab5a-fba4b82614dc&quot;)" d="M108.50916,121.09764c-2.73633,0-5.32861-0.79199-8.56885-2.37598 c-0.61246,1.3872-1.81281,3.20106-2.52051,3.95996c2.95264,1.5127,6.98486,3.09668,10.729,3.09668 c1.77002,0,3.40967-0.21642,4.90289-0.63404v-5.14577C111.74561,120.69823,110.2041,121.09764,108.50916,121.09764z" transform="translate(369.98591 -125.19889)" stroke-width="0px" stroke-linejoin="miter" stroke-miterlimit="2" opacity="0.4"></path> </g>
        <g id="path83878" aria-label="a" transform="translate(0 332.84799999999996) translate(426.1883520000002 10.025600000000004) scale(3.4) translate(-494.19528 23.616)" fill="#FFFFFF"> <path class="c1" d="M110.05497,112.31299c-2.5918,7.12891-4.75244,9.2168-5.9043,9.00098 c-0.93604-0.14404-0.86426-2.08838-0.28809-4.17676l4.03223-14.97705h-4.82422l-0.43213,1.58398 c-1.00781-1.2959-2.52002-2.16016-4.6084-2.16016c-4.96826,0-9.07275,4.17627-11.16113,10.15283 c-2.52002,7.12891-0.71973,14.0415,5.47266,14.0415c2.52002,0,4.89648-1.36816,6.84082-3.3125 c0.64795,1.94434,2.52002,3.3125,4.53613,3.3125c4.89648,0,8.13672-5.40039,10.51318-12.45703L110.05497,112.31299z M100.7664,110.65674l-0.72021,2.66455c-1.58398,5.47217-5.25635,8.7124-7.70459,7.84863 c-2.08838-0.72021-2.66406-3.67236-0.72021-8.64111c1.72852-4.46436,4.68066-7.05615,7.34473-6.19238 C100.19022,106.76855,101.2703,108.35254,100.7664,110.65674z" transform="translate(408.427014 -125.19997)" stroke-width="0px" stroke-linejoin="miter" stroke-miterlimit="2" fill="#594737" stroke="#594737"></path> <linearGradient id="bbd082d7-de08-43af-b02b-f1a8de3d1ae3" gradientUnits="userSpaceOnUse" x1="103.25671" y1="109.15665" x2="97.80662" y2="107.17479" fill="#FFFFFF"> <stop offset="0" style="stop-color:#000000" fill="#FFFFFF"></stop> <stop offset="1" style="stop-color:#000000;stop-opacity:0" fill="#FFFFFF"></stop> </linearGradient> <path class="highlight" fill="url(&quot;#bbd082d7-de08-43af-b02b-f1a8de3d1ae3&quot;)" d="M102.6385,103.74413c-1.00781-1.2959-2.52002-2.16016-4.6084-2.16016 c-4.35468,0-8.04538,3.20872-10.29691,8.02567h5.35559c1.68933-2.6066,3.86575-3.92543,5.87735-3.27322 c1.22412,0.43213,2.3042,2.01611,1.80029,4.32031L102.6385,103.74413z" transform="translate(408.427014 -125.19997)" stroke-width="0px" stroke-linejoin="miter" stroke-miterlimit="2" opacity="0.4"></path> <linearGradient id="40cad867-648a-4a78-a952-b9f93ff6eb80" gradientUnits="userSpaceOnUse" x1="102.1292" y1="118.57168" x2="93.86115" y2="119.8413" fill="#FFFFFF"> <stop offset="0" style="stop-color:#000000" fill="#FFFFFF"></stop> <stop offset="1" style="stop-color:#000000;stop-opacity:0" fill="#FFFFFF"></stop> </linearGradient> <path class="highlight" fill="url(&quot;#40cad867-648a-4a78-a952-b9f93ff6eb80&quot;)" d="M92.34162,121.16991c-1.67035-0.57605-2.37258-2.58141-1.59231-5.90297h-4.78242 c-0.89197,5.71877,1.21909,10.51137,6.37473,10.51137c2.52002,0,4.89648-1.36816,6.84082-3.3125 c-0.97997-2.6127,0.05134-6.31776,0.86377-9.14453C98.46223,118.79344,94.78986,122.03368,92.34162,121.16991z" transform="translate(408.427014 -125.19997)" stroke-width="0px" stroke-linejoin="miter" stroke-miterlimit="2" opacity="0.4"></path> </g>
        <g id="path83880" aria-label="a" transform="translate(0 332.84799999999996) translate(504.6008520000001 10.025600000000004) scale(3.4) translate(-517.25778 23.616)" fill="#FFFFFF"> <path class="c1" d="M110.05497,112.31299c-2.5918,7.12891-4.75244,9.2168-5.9043,9.00098 c-0.93604-0.14404-0.86426-2.08838-0.28809-4.17676l4.03223-14.97705h-4.82422l-0.43213,1.58398 c-1.00781-1.2959-2.52002-2.16016-4.6084-2.16016c-4.96826,0-9.07275,4.17627-11.16113,10.15283 c-2.52002,7.12891-0.71973,14.0415,5.47266,14.0415c2.52002,0,4.89648-1.36816,6.84082-3.3125 c0.64795,1.94434,2.52002,3.3125,4.53613,3.3125c4.89648,0,8.13672-5.40039,10.51318-12.45703L110.05497,112.31299z M100.7664,110.65674l-0.72021,2.66455c-1.58398,5.47217-5.25635,8.7124-7.70459,7.84863 c-2.08838-0.72021-2.66406-3.67236-0.72021-8.64111c1.72852-4.46436,4.68066-7.05615,7.34473-6.19238 C100.19022,106.76855,101.2703,108.35254,100.7664,110.65674z" transform="translate(431.489514 -125.19997)" stroke-width="0px" stroke-linejoin="miter" stroke-miterlimit="2" fill="#594737" stroke="#594737"></path> <linearGradient id="e9293e92-81e5-4a04-81a2-99e1e6f68744" gradientUnits="userSpaceOnUse" x1="103.25671" y1="109.15665" x2="97.80662" y2="107.17479" fill="#FFFFFF"> <stop offset="0" style="stop-color:#000000" fill="#FFFFFF"></stop> <stop offset="1" style="stop-color:#000000;stop-opacity:0" fill="#FFFFFF"></stop> </linearGradient> <path class="highlight" fill="url(&quot;#e9293e92-81e5-4a04-81a2-99e1e6f68744&quot;)" d="M102.6385,103.74413c-1.00781-1.2959-2.52002-2.16016-4.6084-2.16016 c-4.35468,0-8.04538,3.20872-10.29691,8.02567h5.35559c1.68933-2.6066,3.86575-3.92543,5.87735-3.27322 c1.22412,0.43213,2.3042,2.01611,1.80029,4.32031L102.6385,103.74413z" transform="translate(431.489514 -125.19997)" stroke-width="0px" stroke-linejoin="miter" stroke-miterlimit="2" opacity="0.4"></path> <linearGradient id="fe2606e8-57d7-4e49-8fc3-0d434ae442c9" gradientUnits="userSpaceOnUse" x1="102.1292" y1="118.57168" x2="93.86115" y2="119.8413" fill="#FFFFFF"> <stop offset="0" style="stop-color:#000000" fill="#FFFFFF"></stop> <stop offset="1" style="stop-color:#000000;stop-opacity:0" fill="#FFFFFF"></stop> </linearGradient> <path class="highlight" fill="url(&quot;#fe2606e8-57d7-4e49-8fc3-0d434ae442c9&quot;)" d="M92.34162,121.16991c-1.67035-0.57605-2.37258-2.58141-1.59231-5.90297h-4.78242 c-0.89197,5.71877,1.21909,10.51137,6.37473,10.51137c2.52002,0,4.89648-1.36816,6.84082-3.3125 c-0.97997-2.6127,0.05134-6.31776,0.86377-9.14453C98.46223,118.79344,94.78986,122.03368,92.34162,121.16991z" transform="translate(431.489514 -125.19997)" stroke-width="0px" stroke-linejoin="miter" stroke-miterlimit="2" opacity="0.4"></path> </g>
        <g id="path83882" aria-label="g" transform="translate(0 332.84799999999996) translate(563.7446 10.025600000000004) scale(3.4) translate(-534.653 23.616)" fill="#FFFFFF"> <path class="c1" d="M112.96094,112.31299c-1.65625,4.82422-4.24805,8.35254-7.99219,10.94482 c0.35938-1.15186,0.64746-2.3042,1.00781-3.52832l4.75195-17.56934h-4.82422l-0.43164,1.51221 c-1.00781-1.22412-2.52051-2.08838-4.53613-2.08838c-4.96875,0-9.07324,4.17627-11.16113,10.15283 c-2.52051,7.12891-0.7207,14.0415,5.47266,14.0415c1.65527,0,3.24023-0.57617,4.67969-1.51221 c-0.21582,0.64795-0.35938,1.22412-0.57617,1.80029c-10.08008,3.88818-16.41699,5.61621-16.48926,11.30469 c0,2.80811,2.44824,5.11279,5.97656,5.11279c5.9043,0,10.5127-4.68066,14.18555-13.68164 c6.62402-3.09619,11.08887-6.62451,14.11328-15.48096L112.96094,112.31299z M89.27148,138.37939 c-1.00879,0-2.0166-0.43213-2.0166-1.36816c-0.07227-2.08838,4.39258-3.60059,9.93652-5.76074 C94.45508,136.5791,91.35938,138.37939,89.27148,138.37939z M103.74414,110.2251l-1.08008,3.88818 c-1.65625,4.96826-5.1123,7.84863-7.41602,7.05664c-2.08887-0.72021-2.66504-3.67236-0.7207-8.64111 c1.72852-4.46436,4.68066-7.05615,7.34473-6.19238C103.02441,106.69678,104.03223,108.2085,103.74414,110.2251z" transform="translate(451.79069 -125.19997)" stroke-width="0px" stroke-linejoin="miter" stroke-miterlimit="2" fill="#594737" stroke="#594737"></path> <linearGradient id="b44edf1d-3015-4bc2-bccb-bae0d53b4622" gradientUnits="userSpaceOnUse" x1="106.06267" y1="109.16569" x2="100.64492" y2="107.19559" fill="#FFFFFF"> <stop offset="0" style="stop-color:#000000" fill="#FFFFFF"></stop> <stop offset="1" style="stop-color:#000000;stop-opacity:0" fill="#FFFFFF"></stop> </linearGradient> <path class="highlight" fill="url(&quot;#b44edf1d-3015-4bc2-bccb-bae0d53b4622&quot;)" d="M105.47269,103.67235c-1.00781-1.22412-2.52051-2.08838-4.53613-2.08838 c-4.37427,0-8.07794,3.23763-10.32635,8.08998h5.34479c1.69501-2.64879,3.88922-3.99504,5.91711-3.33754 c1.15234,0.36035,2.16016,1.87207,1.87207,3.88867L105.47269,103.67235z" transform="translate(451.79069 -125.19997)" stroke-width="0px" stroke-linejoin="miter" stroke-miterlimit="2" opacity="0.4"></path> <linearGradient id="f39649ea-46d4-473d-8b80-dd23db708690" gradientUnits="userSpaceOnUse" x1="104.58519" y1="118.53489" x2="96.54133" y2="119.77009" fill="#FFFFFF"> <stop offset="0" style="stop-color:#000000" fill="#FFFFFF"></stop> <stop offset="1" style="stop-color:#000000;stop-opacity:0" fill="#FFFFFF"></stop> </linearGradient> <path class="highlight" fill="url(&quot;#f39649ea-46d4-473d-8b80-dd23db708690&quot;)" d="M102.66409,114.11327c-1.65625,4.96826-5.1123,7.84863-7.41602,7.05664 c-1.70728-0.58865-2.4032-2.66911-1.53912-6.12221h-4.79993c-0.98163,5.81538,1.11658,10.73061,6.33905,10.73061 c1.65527,0,3.24023-0.57617,4.67969-1.51221L102.66409,114.11327z" transform="translate(451.79069 -125.19997)" stroke-width="0px" stroke-linejoin="miter" stroke-miterlimit="2" opacity="0.4"></path> <linearGradient id="83b28b18-452f-4206-a07c-82e872ff58c9" gradientUnits="userSpaceOnUse" x1="106.74685" y1="127.69627" x2="103.32802" y2="118.905" fill="#FFFFFF"> <stop offset="0.05566" style="stop-color:#000000" fill="#FFFFFF"></stop> <stop offset="1" style="stop-color:#000000;stop-opacity:0" fill="#FFFFFF"></stop> </linearGradient> <path class="highlight" fill="url(&quot;#83b28b18-452f-4206-a07c-82e872ff58c9&quot;)" d="M104.96878,123.2578c0.35938-1.15186,0.64746-2.3042,1.00781-3.52832l1.81861-6.72392 l-5.13111,1.1077l-2.73633,10.15283c-0.21582,0.64795-0.35938,1.22412-0.57617,1.80029 C101.35467,125.2532,103.83669,124.00914,104.96878,123.2578z" transform="translate(451.79069 -125.19997)" stroke-width="0px" stroke-linejoin="miter" stroke-miterlimit="2" opacity="0.4"></path> <linearGradient id="5c265dcb-5191-4d46-b1c8-2fa32c35e1e8" gradientUnits="userSpaceOnUse" x1="94.21132" y1="125.53598" x2="95.951" y2="135.75664" fill="#FFFFFF"> <stop offset="0.05566" style="stop-color:#000000" fill="#FFFFFF"></stop> <stop offset="1" style="stop-color:#000000;stop-opacity:0" fill="#FFFFFF"></stop> </linearGradient> <path class="highlight" fill="url(&quot;#5c265dcb-5191-4d46-b1c8-2fa32c35e1e8&quot;)" d="M97.19144,131.25047c-2.73633,5.32861-5.83203,7.12891-7.91992,7.12891l-0.43262,4.10449 c5.9043,0,10.5127-4.68066,14.18555-13.68164C101.1506,129.68803,99.19553,130.4935,97.19144,131.25047z" transform="translate(451.79069 -125.19997)" stroke-width="0px" stroke-linejoin="miter" stroke-miterlimit="2" opacity="0.4"></path> </g>
        <g id="path83884" aria-label="y" transform="translate(0 332.84799999999996) translate(640.1872079999998 11.984000000000002) scale(3.4) translate(-557.13612 23.04)" fill="#FFFFFF"> <path class="c1" d="M112.96143,112.31299c-1.65625,4.82422-4.24902,8.35254-7.99316,10.94482 c0.36035-1.15186,0.64844-2.3042,1.00879-3.52832l4.75195-17.56934h-4.82422l-1.15234,4.32031 c-1.44043,4.46436-3.3125,7.70459-5.1123,10.36914c-1.87207,2.80811-4.53613,4.75244-5.68848,4.32031 c-1.08008-0.36035-0.50391-2.88037,0.28809-5.90479l3.52832-13.10498h-4.82422l-3.38477,12.45703 c-1.94434,7.05664-0.07227,11.16113,4.17676,11.16113c2.44824,0,4.75195-1.44043,6.84082-3.67236 c-0.43262,1.2959-0.79297,2.73633-1.22461,3.96045c-10.08105,3.88818-16.41699,5.61621-16.48926,11.30469 c0,2.80811,2.44824,5.11279,5.97656,5.11279c5.9043,0,10.5127-4.68066,14.18457-13.68164 c6.625-3.09619,11.08984-6.62451,14.11328-15.48096L112.96143,112.31299z M89.271,138.37939 c-1.00781,0-2.01563-0.43213-2.01563-1.36816c-0.07227-2.08838,4.3916-3.60059,9.93652-5.76074 C94.45557,136.5791,91.35986,138.37939,89.271,138.37939z" transform="translate(474.27332 -125.20014)" stroke-width="0px" stroke-linejoin="miter" stroke-miterlimit="2" fill="#594737" stroke="#594737"></path> <linearGradient id="3631359f-c104-41a7-8e6e-63f13aeece37" gradientUnits="userSpaceOnUse" x1="105.63009" y1="116.659" x2="96.27245" y2="115.89822" fill="#FFFFFF"> <stop offset="0.05566" style="stop-color:#000000" fill="#FFFFFF"></stop> <stop offset="1" style="stop-color:#000000;stop-opacity:0" fill="#FFFFFF"></stop> </linearGradient> <path class="highlight" fill="url(&quot;#3631359f-c104-41a7-8e6e-63f13aeece37&quot;)" d="M104.75244,106.48045c-1.44043,4.46436-3.3125,7.70459-5.1123,10.36914 c-1.87207,2.80811-4.53613,4.75244-5.68848,4.32031c-1.08008-0.36035-0.50391-2.88037,0.28809-5.90479l-4.68066-0.64795 c-1.94434,7.05664-0.07227,11.16113,4.17676,11.16113c2.44824,0,4.75195-1.44043,6.84082-3.67236L104.75244,106.48045z" transform="translate(474.27332 -125.20014)" stroke-width="0px" stroke-linejoin="miter" stroke-miterlimit="2" opacity="0.4"></path> <linearGradient id="c4b31797-8c3b-457c-b7b7-ae7a309646a0" gradientUnits="userSpaceOnUse" x1="107.0996" y1="127.38519" x2="104.30972" y2="120.54548" fill="#FFFFFF"> <stop offset="0.05566" style="stop-color:#000000" fill="#FFFFFF"></stop> <stop offset="1" style="stop-color:#000000;stop-opacity:0" fill="#FFFFFF"></stop> </linearGradient> <path class="highlight" fill="url(&quot;#c4b31797-8c3b-457c-b7b7-ae7a309646a0&quot;)" d="M103.04373,112.87434l-2.46707,9.2316c-0.08142,0.23636-0.33081,1.03313-0.60146,1.96891 c-0.23545,0.79307-0.44371,1.49348-0.62315,1.99154c2.18604-0.90273,4.14247-1.82993,5.61621-2.80859 c0.36035-1.15186,0.64844-2.3042,1.00879-3.52832l2.07704-7.67941L103.04373,112.87434z" transform="translate(474.27332 -125.20014)" stroke-width="0px" stroke-linejoin="miter" stroke-miterlimit="2" opacity="0.4"></path> <linearGradient id="fd0bd509-b9fb-46f9-b75f-6b2fef477d8d" gradientUnits="userSpaceOnUse" x1="94.21127" y1="125.53584" x2="95.95098" y2="135.75664" fill="#FFFFFF"> <stop offset="0.05566" style="stop-color:#000000" fill="#FFFFFF"></stop> <stop offset="1" style="stop-color:#000000;stop-opacity:0" fill="#FFFFFF"></stop> </linearGradient> <path class="highlight" fill="url(&quot;#fd0bd509-b9fb-46f9-b75f-6b2fef477d8d&quot;)" d="M97.19189,131.25047c-2.73633,5.32861-5.83203,7.12891-7.9209,7.12891l-0.43164,4.10449 c5.9043,0,10.5127-4.68066,14.18457-13.68164C101.26604,129.71912,99.27184,130.508,97.19189,131.25047z" transform="translate(474.27332 -125.20014)" stroke-width="0px" stroke-linejoin="miter" stroke-miterlimit="2" opacity="0.4"></path> </g>
           </g>
      <image xlink:href="" id="icon" x="0" y="0" style="display: none;" fill="#FFFFFF"></image>
    </g>
  </g>
</svg>